<?xml version="1.0" standalone="no"?>
<!DOCTYPE svg PUBLIC "-//W3C//DTD SVG 20010904//EN"
 "http://www.w3.org/TR/2001/REC-SVG-20010904/DTD/svg10.dtd">
<svg version="1.0" xmlns="http://www.w3.org/2000/svg"
 width="640.000000pt" height="640.000000pt" viewBox="0 0 640.000000 640.000000"
 preserveAspectRatio="xMidYMid meet">
<metadata>
Created by potrace 1.11, written by Peter Selinger 2001-2013
</metadata>
<g transform="translate(0.000000,640.000000) scale(0.100000,-0.100000)"
fill="#000000" stroke="none">
<path d="M2999 6395 c-2 -1 -43 -6 -91 -9 -48 -3 -93 -8 -100 -10 -7 -3 -35
-7 -63 -10 -49 -6 -187 -30 -232 -41 -13 -3 -32 -7 -43 -10 -125 -27 -335 -95
-485 -156 -295 -120 -617 -315 -865 -526 -117 -99 -348 -341 -438 -458 -230
-301 -382 -579 -501 -919 -36 -102 -94 -303 -106 -367 -2 -11 -6 -28 -9 -37
-3 -9 -7 -35 -10 -57 -4 -22 -10 -62 -16 -90 -25 -138 -35 -275 -35 -505 0
-176 8 -338 20 -398 1 -9 6 -42 10 -72 8 -63 8 -60 30 -165 43 -211 99 -394
182 -593 56 -137 147 -320 189 -382 13 -19 24 -38 24 -42 0 -22 217 -322 318
-441 64 -76 285 -291 372 -363 252 -210 490 -354 830 -502 222 -96 568 -188
823 -218 29 -3 70 -8 92 -11 76 -9 500 -10 575 -2 41 5 100 11 130 14 30 3 62
7 70 10 8 2 35 7 60 10 64 9 215 41 280 60 30 8 64 17 75 20 39 9 270 88 280
95 6 4 21 11 35 15 70 21 330 151 456 228 77 47 114 71 238 157 119 82 429
370 540 500 64 75 218 286 259 351 23 39 54 89 68 112 127 208 261 530 329
787 29 109 69 306 76 375 4 33 8 63 10 66 25 43 24 640 0 779 -3 14 -7 45 -10
70 -31 235 -108 516 -213 768 -56 137 -147 320 -189 382 -13 19 -24 38 -24 42
0 23 -227 336 -324 448 -69 79 -296 300 -371 361 -389 316 -796 523 -1255 638
-154 39 -241 56 -395 76 -27 4 -63 9 -80 11 -38 5 -512 14 -516 9z"/>
</g>
</svg>
